<svg width="48" height="48" viewBox="0 0 48 48" fill="none" xmlns="http://www.w3.org/2000/svg">
<path d="M22 4V16.828C19.2306 16.314 16.3701 16.6661 13.8081 17.8363C11.246 19.0066 9.10691 20.9381 7.68209 23.3678C6.25728 25.7975 5.616 28.6074 5.84558 31.4146C6.07517 34.2219 7.16446 36.8902 8.96512 39.0562C10.7658 41.2221 13.1903 42.7804 15.9084 43.5188C18.6266 44.2572 21.5063 44.1399 24.1553 43.1828C26.8044 42.2256 29.0941 40.4753 30.7125 38.17C32.331 35.8648 33.1996 33.1167 33.2 30.3V22.828C35.35 23.7424 37.6637 24.2092 40 24.2H42V13H40C36.194 13 33.2 9.926 33.2 6V4H22ZM26 8H29.376C30.164 12.44 33.536 15.992 38 16.82V20.056C35.924 19.752 34.05 18.972 32.314 17.81L29.2 15.726V30.3C29.1998 32.2397 28.6181 34.1349 27.5299 35.7407C26.4417 37.3464 24.8971 38.5891 23.0956 39.3081C21.294 40.0271 19.3182 40.1895 17.4235 39.7742C15.5287 39.359 13.8019 38.3852 12.4662 36.9786C11.1305 35.572 10.2471 33.7973 9.93028 31.8836C9.61343 29.9699 9.87761 28.0052 10.6887 26.2431C11.4998 24.4811 12.8205 23.0027 14.4804 21.9989C16.1402 20.9951 18.0628 20.512 20 20.612V23.82C18.6969 23.7195 17.3938 24.0141 16.2608 24.6654C15.1277 25.3167 14.2172 26.2944 13.6483 27.471C13.0793 28.6476 12.8782 29.9684 13.0713 31.261C13.2644 32.5535 13.8426 33.7579 14.7306 34.7169C15.6185 35.6759 16.7749 36.3449 18.0488 36.6367C19.3228 36.9285 20.6551 36.8294 21.8719 36.3525C23.0887 35.8756 24.1335 35.043 24.8699 33.9633C25.6063 32.8836 26.0001 31.6069 26 30.3V8ZM17 30.3C17 29.637 17.2634 29.0011 17.7322 28.5322C18.2011 28.0634 18.837 27.8 19.5 27.8C20.163 27.8 20.7989 28.0634 21.2678 28.5322C21.7366 29.0011 22 29.637 22 30.3C22 30.963 21.7366 31.5989 21.2678 32.0678C20.7989 32.5366 20.163 32.8 19.5 32.8C18.837 32.8 18.2011 32.5366 17.7322 32.0678C17.2634 31.5989 17 30.963 17 30.3Z" fill="white"/>
</svg>
