<svg width="48" height="48" viewBox="0 0 48 48" fill="none" xmlns="http://www.w3.org/2000/svg">
<path d="M40.8975 39.2925L29.46 21.33L40.6575 9.01313C41.0504 8.57022 41.2529 7.9903 41.2211 7.39909C41.1893 6.80788 40.9258 6.25304 40.4876 5.85484C40.0494 5.45665 39.472 5.24721 38.8804 5.27193C38.2889 5.29664 37.7309 5.55352 37.3275 5.98688L26.9644 17.3944L19.8975 6.2925C19.6944 5.97318 19.4141 5.71024 19.0824 5.52802C18.7507 5.3458 18.3784 5.25017 18 5.25H9C8.59695 5.25019 8.20135 5.35864 7.85454 5.56401C7.50774 5.76939 7.22247 6.06415 7.02856 6.41749C6.83464 6.77083 6.7392 7.16977 6.75221 7.57261C6.76522 7.97545 6.8862 8.36741 7.1025 8.7075L18.54 26.67L7.335 38.9869C7.13213 39.2048 6.97452 39.4608 6.87133 39.7401C6.76813 40.0194 6.72139 40.3164 6.73382 40.6139C6.74625 40.9114 6.8176 41.2034 6.94373 41.4731C7.06987 41.7428 7.24828 41.9848 7.46862 42.1851C7.68897 42.3853 7.94687 42.5399 8.22738 42.6397C8.50788 42.7395 8.80541 42.7827 9.10273 42.7667C9.40004 42.7507 9.69123 42.6759 9.9594 42.5465C10.2276 42.4172 10.4674 42.2359 10.665 42.0131L21.0356 30.6056L28.1025 41.7075C28.3056 42.0268 28.5859 42.2898 28.9176 42.472C29.2493 42.6542 29.6216 42.7498 30 42.75H39C39.4031 42.7498 39.7987 42.6414 40.1455 42.436C40.4923 42.2306 40.7775 41.9359 40.9714 41.5825C41.1654 41.2292 41.2608 40.8302 41.2478 40.4274C41.2348 40.0245 41.1138 39.6326 40.8975 39.2925ZM31.2356 38.25L13.0988 9.75H16.7644L34.9013 38.25H31.2356Z" fill="white"/>
</svg>
