<svg width="639" height="93" viewBox="0 0 639 93" fill="none" xmlns="http://www.w3.org/2000/svg">
<path d="M16.64 92.16C13.568 92.16 10.752 91.4347 8.192 89.984C5.71733 88.448 3.712 86.4427 2.176 83.968C0.725334 81.408 9.53674e-07 78.592 9.53674e-07 75.52V16.64C9.53674e-07 13.568 0.725334 10.7947 2.176 8.32C3.712 5.76 5.71733 3.75466 8.192 2.304C10.752 0.768 13.568 0 16.64 0H91.904V13.824H18.56C17.1947 13.824 16.0427 14.2933 15.104 15.232C14.2507 16.0853 13.824 17.1947 13.824 18.56V73.6C13.824 74.9653 14.2507 76.1173 15.104 77.056C16.0427 77.9093 17.1947 78.336 18.56 78.336H91.904V92.16H16.64ZM121.634 92.16C118.562 92.16 115.746 91.4347 113.186 89.984C110.711 88.448 108.706 86.4427 107.17 83.968C105.719 81.408 104.994 78.592 104.994 75.52V16.64C104.994 13.568 105.719 10.7947 107.17 8.32C108.706 5.76 110.711 3.75466 113.186 2.304C115.746 0.768 118.562 0 121.634 0H180.514C183.501 0 186.274 0.768 188.834 2.304C191.394 3.75466 193.399 5.76 194.85 8.32C196.386 10.7947 197.154 13.568 197.154 16.64V75.52C197.154 78.592 196.386 81.408 194.85 83.968C193.399 86.4427 191.394 88.448 188.834 89.984C186.274 91.4347 183.501 92.16 180.514 92.16H121.634ZM122.018 78.336H180.13C180.983 78.336 181.709 78.0373 182.306 77.44C182.903 76.7573 183.202 75.9893 183.202 75.136V17.024C183.202 16.1707 182.903 15.4453 182.306 14.848C181.709 14.1653 180.983 13.824 180.13 13.824H122.018C121.165 13.824 120.397 14.1653 119.714 14.848C119.117 15.4453 118.818 16.1707 118.818 17.024V75.136C118.818 75.9893 119.117 76.7573 119.714 77.44C120.397 78.0373 121.165 78.336 122.018 78.336ZM211.506 92.16V0H286.898C289.97 0 292.786 0.768 295.346 2.304C297.906 3.75466 299.911 5.76 301.362 8.32C302.898 10.7947 303.666 13.568 303.666 16.64V75.52C303.666 78.592 302.898 81.408 301.362 83.968C299.911 86.4427 297.906 88.448 295.346 89.984C292.786 91.4347 289.97 92.16 286.898 92.16H211.506ZM228.402 78.336H286.642C287.495 78.336 288.221 78.0373 288.818 77.44C289.415 76.7573 289.714 75.9893 289.714 75.136V17.024C289.714 16.1707 289.415 15.4453 288.818 14.848C288.221 14.1653 287.495 13.824 286.642 13.824H228.402C227.549 13.824 226.823 14.1653 226.226 14.848C225.629 15.4453 225.33 16.1707 225.33 17.024V75.136C225.33 75.9893 225.629 76.7573 226.226 77.44C226.823 78.0373 227.549 78.336 228.402 78.336ZM318.256 92.16V16.64C318.256 13.568 318.981 10.7947 320.432 8.32C321.968 5.76 323.973 3.75466 326.448 2.304C329.008 0.768 331.824 0 334.896 0H393.648C396.72 0 399.536 0.768 402.096 2.304C404.656 3.75466 406.661 5.76 408.112 8.32C409.648 10.7947 410.416 13.568 410.416 16.64V92.16H396.464V59.904H332.08V92.16H318.256ZM332.08 46.08H396.464V17.024C396.464 16.1707 396.165 15.4453 395.568 14.848C394.971 14.1653 394.245 13.824 393.392 13.824H335.28C334.427 13.824 333.659 14.1653 332.976 14.848C332.379 15.4453 332.08 16.1707 332.08 17.024V46.08ZM475.688 92.16L422.312 0H438.44L482.6 76.544L526.504 0H542.632L489.384 92.16H475.688ZM553.631 92.16V0H638.111V13.824H567.583V39.168H624.287V52.992H567.583V78.336H638.111V92.16H553.631Z" fill="black"/>
</svg>
