<svg width="43" height="43" viewBox="0 0 43 43" fill="none" xmlns="http://www.w3.org/2000/svg">
<path d="M19.7322 0.988238C19.8373 0.698662 20.0291 0.448468 20.2813 0.271659C20.5336 0.0948498 20.8342 0 21.1422 0C21.4503 0 21.7509 0.0948498 22.0032 0.271659C22.2554 0.448468 22.4471 0.698662 22.5522 0.988238L23.9862 4.90624C25.1109 7.97772 26.8917 10.7671 29.2045 13.0799C31.5174 15.3928 34.3068 17.1736 37.3782 18.2982L41.2932 19.7322C41.5828 19.8373 41.833 20.0291 42.0098 20.2813C42.1866 20.5336 42.2815 20.8342 42.2815 21.1422C42.2815 21.4503 42.1866 21.7509 42.0098 22.0032C41.833 22.2554 41.5828 22.4471 41.2932 22.5522L37.3782 23.9862C34.3068 25.1109 31.5174 26.8917 29.2045 29.2045C26.8917 31.5174 25.1109 34.3068 23.9862 37.3782L22.5522 41.2932C22.4471 41.5828 22.2554 41.833 22.0032 42.0098C21.7509 42.1866 21.4503 42.2815 21.1422 42.2815C20.8342 42.2815 20.5336 42.1866 20.2813 42.0098C20.0291 41.833 19.8373 41.5828 19.7322 41.2932L18.2982 37.3782C17.1736 34.3068 15.3928 31.5174 13.0799 29.2045C10.7671 26.8917 7.97772 25.1109 4.90624 23.9862L0.988238 22.5522C0.698662 22.4471 0.448468 22.2554 0.271659 22.0032C0.0948498 21.7509 0 21.4503 0 21.1422C0 20.8342 0.0948498 20.5336 0.271659 20.2813C0.448468 20.0291 0.698662 19.8373 0.988238 19.7322L4.90624 18.2982C7.97772 17.1736 10.7671 15.3928 13.0799 13.0799C15.3928 10.7671 17.1736 7.97772 18.2982 4.90624L19.7322 0.988238Z" fill="white"/>
</svg>
